<svg width="19" height="19" viewBox="0 0 19 19" fill="none" xmlns="http://www.w3.org/2000/svg">
<path d="M9.25 0.25C10.0762 0.25 10.873 0.355469 11.6406 0.566406C12.4082 0.777344 13.123 1.08203 13.7852 1.48047C14.4473 1.87891 15.0537 2.34766 15.6045 2.88672C16.1553 3.42578 16.627 4.03223 17.0195 4.70605C17.4121 5.37988 17.7139 6.09766 17.9248 6.85938C18.1357 7.62109 18.2441 8.41797 18.25 9.25C18.25 10.0762 18.1445 10.873 17.9336 11.6406C17.7227 12.4082 17.418 13.123 17.0195 13.7852C16.6211 14.4473 16.1523 15.0537 15.6133 15.6045C15.0742 16.1553 14.4678 16.627 13.7939 17.0195C13.1201 17.4121 12.4023 17.7139 11.6406 17.9248C10.8789 18.1357 10.082 18.2441 9.25 18.25C8.42383 18.25 7.62695 18.1445 6.85938 17.9336C6.0918 17.7227 5.37695 17.418 4.71484 17.0195C4.05273 16.6211 3.44629 16.1523 2.89551 15.6133C2.34473 15.0742 1.87305 14.4678 1.48047 13.7939C1.08789 13.1201 0.786133 12.4023 0.575195 11.6406C0.364258 10.8789 0.255859 10.082 0.25 9.25C0.25 8.42383 0.355469 7.62695 0.566406 6.85938C0.777344 6.0918 1.08203 5.37695 1.48047 4.71484C1.87891 4.05273 2.34766 3.44629 2.88672 2.89551C3.42578 2.34473 4.03223 1.87305 4.70605 1.48047C5.37988 1.08789 6.09766 0.786133 6.85938 0.575195C7.62109 0.364258 8.41797 0.255859 9.25 0.25ZM9.25 17.125C9.97656 17.125 10.6738 17.0313 11.3418 16.8438C12.0098 16.6562 12.6367 16.3926 13.2227 16.0527C13.8086 15.7129 14.3389 15.3027 14.8135 14.8223C15.2881 14.3418 15.6982 13.8115 16.0439 13.2314C16.3896 12.6514 16.6562 12.0244 16.8438 11.3506C17.0313 10.6768 17.125 9.97656 17.125 9.25C17.125 8.52344 17.0313 7.82617 16.8438 7.1582C16.6562 6.49023 16.3926 5.86328 16.0527 5.27734C15.7129 4.69141 15.3027 4.16113 14.8223 3.68652C14.3418 3.21191 13.8115 2.80176 13.2314 2.45605C12.6514 2.11035 12.0244 1.84375 11.3506 1.65625C10.6768 1.46875 9.97656 1.375 9.25 1.375C8.52344 1.375 7.82617 1.46875 7.1582 1.65625C6.49023 1.84375 5.86328 2.10742 5.27734 2.44727C4.69141 2.78711 4.16113 3.19727 3.68652 3.67773C3.21191 4.1582 2.80176 4.68848 2.45605 5.26855C2.11035 5.84863 1.84375 6.47559 1.65625 7.14941C1.46875 7.82324 1.375 8.52344 1.375 9.25C1.375 9.97656 1.46875 10.6738 1.65625 11.3418C1.84375 12.0098 2.10742 12.6367 2.44727 13.2227C2.78711 13.8086 3.19727 14.3389 3.67773 14.8135C4.1582 15.2881 4.68848 15.6982 5.26855 16.0439C5.84863 16.3896 6.47559 16.6562 7.14941 16.8438C7.82324 17.0313 8.52344 17.125 9.25 17.125ZM12.7905 5.79441C12.9856 5.98948 12.9858 6.30567 12.791 6.50101L10.4019 8.89695C10.2073 9.0921 10.2073 9.4079 10.4019 9.60305L12.791 11.999C12.9858 12.1943 12.9856 12.5105 12.7905 12.7056L12.7056 12.7905C12.5105 12.9856 12.1943 12.9858 11.999 12.791L9.60305 10.4019C9.4079 10.2073 9.0921 10.2073 8.89695 10.4019L6.50101 12.791C6.30567 12.9858 5.98948 12.9856 5.79441 12.7905L5.7095 12.7056C5.51443 12.5105 5.51421 12.1943 5.709 11.999L8.09814 9.60305C8.29274 9.4079 8.29274 9.0921 8.09814 8.89695L5.709 6.50101C5.51421 6.30567 5.51443 5.98948 5.7095 5.79441L5.79441 5.7095C5.98948 5.51443 6.30567 5.51421 6.50101 5.709L8.89695 8.09814C9.0921 8.29274 9.4079 8.29274 9.60305 8.09814L11.999 5.709C12.1943 5.51421 12.5105 5.51443 12.7056 5.7095L12.7905 5.79441Z" fill="#C82020" stroke="#D21818" stroke-width="0.5"/>
</svg>
