<svg width="24" height="24" viewBox="0 0 24 24" fill="none" xmlns="http://www.w3.org/2000/svg">
<g clip-path="url(#clip0_2019_6)">
<path d="M22.4733 12.7808L12.4733 2.78078C12.3484 2.65661 12.1795 2.58691 12.0034 2.58691C11.8272 2.58691 11.6583 2.65661 11.5334 2.78078L1.53335 12.7808C1.42413 12.9083 1.36706 13.0724 1.37354 13.2401C1.38002 13.4079 1.44958 13.5671 1.56831 13.6858C1.68704 13.8045 1.8462 13.8741 2.01398 13.8806C2.18177 13.8871 2.34582 13.83 2.47335 13.7208L12 4.19411L21.5267 13.7274C21.6542 13.8367 21.8183 13.8937 21.9861 13.8872C22.1538 13.8808 22.313 13.8112 22.4317 13.6925C22.5505 13.5738 22.62 13.4146 22.6265 13.2468C22.633 13.079 22.5759 12.915 22.4667 12.7874L22.4733 12.7808Z" fill="#746F6F"/>
<path d="M18.6667 20.0199H15.3333V13.3533H8.66667V20.0199H5.33333V10.6866L4 12.0199V20.0199C4 20.3736 4.14048 20.7127 4.39052 20.9628C4.64057 21.2128 4.97971 21.3533 5.33333 21.3533H10V14.6866H14V21.3533H18.6667C19.0203 21.3533 19.3594 21.2128 19.6095 20.9628C19.8595 20.7127 20 20.3736 20 20.0199V11.8599L18.6667 10.5266V20.0199Z" fill="#746F6F"/>
</g>
<defs>
<clipPath id="clip0_2019_6">
<rect width="24" height="24" fill="white"/>
</clipPath>
</defs>
</svg>
