<svg width="24" height="24" viewBox="0 0 24 24" fill="none" xmlns="http://www.w3.org/2000/svg">
<g clip-path="url(#clip0_2019_2)">
<path d="M22 13.9158C21.9123 13.9163 21.8253 13.8995 21.7441 13.8663C21.6629 13.8332 21.589 13.7843 21.5267 13.7225L12 4.18915L2.47335 13.7225C2.34582 13.8317 2.18177 13.8888 2.01398 13.8823C1.8462 13.8758 1.68704 13.8063 1.56831 13.6875C1.44958 13.5688 1.38002 13.4096 1.37354 13.2419C1.36706 13.0741 1.42413 12.91 1.53335 12.7825L11.5334 2.78248C11.6583 2.65832 11.8272 2.58862 12.0034 2.58862C12.1795 2.58862 12.3484 2.65832 12.4734 2.78248L22.4734 12.7825C22.5651 12.8761 22.6272 12.9946 22.6519 13.1233C22.6767 13.252 22.6629 13.3852 22.6124 13.5061C22.5619 13.627 22.4769 13.7304 22.368 13.8032C22.2591 13.8761 22.1311 13.9153 22 13.9158Z" fill="#D8A96D"/>
<path d="M12 5.71094L4 13.7376V21.8509C4 22.2046 4.14048 22.5437 4.39052 22.7937C4.64057 23.0438 4.97971 23.1843 5.33333 23.1843H10V16.5176H14V23.1843H18.6667C19.0203 23.1843 19.3594 23.0438 19.6095 22.7937C19.8595 22.5437 20 22.2046 20 21.8509V13.6909L12 5.71094Z" fill="#D8A96D"/>
</g>
<defs>
<clipPath id="clip0_2019_2">
<rect width="24" height="24" fill="white"/>
</clipPath>
</defs>
</svg>
