<svg width="24" height="24" viewBox="0 0 24 24" fill="none" xmlns="http://www.w3.org/2000/svg">
<path d="M21 10L19.501 4.57L3.85402 9.903V10M3.5 10L14.646 1L17.463 4.95" stroke="#746F6F" stroke-linecap="square"/>
<path d="M12 13C12.7956 13 13.5585 13.3163 14.1211 13.8789C14.6837 14.4415 15 15.2044 15 16L14.9854 16.2969C14.9171 16.9835 14.6133 17.6289 14.1211 18.1211C13.5585 18.6837 12.7956 19 12 19C11.2044 19 10.4415 18.6837 9.87891 18.1211C9.3163 17.5585 9 16.7956 9 16C9 15.2044 9.3163 14.4415 9.87891 13.8789C10.4415 13.3163 11.2044 13 12 13Z" stroke="#746F6F" stroke-linecap="square"/>
<path d="M22 10.5V21.5H2V10.5H22Z" stroke="#746F6F" stroke-linecap="square"/>
<path d="M2.49902 18.498C2.82775 18.4977 3.15424 18.5619 3.45801 18.6875C3.76167 18.8131 4.03716 18.9981 4.26953 19.2305C4.50191 19.4628 4.68686 19.7383 4.8125 20.042C4.93815 20.3458 5.00228 20.6723 5.00195 21.001V21.5H2V18.498H2.49902ZM22 18.5V21.5H19V21C19 20.337 19.2636 19.7013 19.7324 19.2324C20.2013 18.7636 20.837 18.5 21.5 18.5H22ZM5 10.5V11C5 11.663 4.73642 12.2987 4.26758 12.7676C3.79874 13.2364 3.16304 13.5 2.5 13.5H2V10.5H5ZM22 10.5V13.5H21.5C20.837 13.5 20.2013 13.2364 19.7324 12.7676C19.2636 12.2987 19 11.663 19 11V10.5H22Z" stroke="#746F6F" stroke-linecap="square"/>
</svg>
