<svg width="24" height="24" viewBox="0 0 24 24" fill="none" xmlns="http://www.w3.org/2000/svg">
<path d="M13 16.5C13 16.8978 12.842 17.2794 12.5607 17.5607C12.2794 17.842 11.8978 18 11.5 18C11.1022 18 10.7206 17.842 10.4393 17.5607C10.158 17.2794 10 16.8978 10 16.5C10 16.1022 10.158 15.7206 10.4393 15.4393C10.7206 15.158 11.1022 15 11.5 15C11.8978 15 12.2794 15.158 12.5607 15.4393C12.842 15.7206 13 16.1022 13 16.5Z" fill="#D8A96D"/>
<path d="M13.9749 2L17.027 5.61591L19 4.5L21.038 10.4999H22V22.4999H1V10.4999H1.51V10.4899H3.5L13.9749 2ZM7.5 10.5L20 10.4899L18.5858 6L16 7L7.5 10.5ZM6 10L16 6L14 3.5L6 10ZM5 12.4999H3V14.4999C3.53043 14.4999 4.03914 14.2892 4.41421 13.9141C4.78929 13.5391 5 13.0303 5 12.4999ZM15 16.4999C15 16.0403 14.9095 15.5852 14.7336 15.1605C14.5577 14.7359 14.2999 14.35 13.9749 14.025C13.6499 13.7 13.264 13.4422 12.8394 13.2663C12.4148 13.0904 11.9596 12.9999 11.5 12.9999C11.0404 12.9999 10.5852 13.0904 10.1606 13.2663C9.73597 13.4422 9.35013 13.7 9.02513 14.025C8.70012 14.35 8.44231 14.7359 8.26642 15.1605C8.09053 15.5852 8 16.0403 8 16.4999C8 17.4282 8.36875 18.3184 9.02513 18.9748C9.6815 19.6312 10.5717 19.9999 11.5 19.9999C12.4283 19.9999 13.3185 19.6312 13.9749 18.9748C14.6313 18.3184 15 17.4282 15 16.4999ZM20 20.4999V18.4999C19.4696 18.4999 18.9609 18.7106 18.5858 19.0857C18.2107 19.4608 18 19.9695 18 20.4999H20ZM18 12.4999C18 13.0303 18.2107 13.5391 18.5858 13.9141C18.9609 14.2892 19.4696 14.4999 20 14.4999V12.4999H18ZM3 20.4999H5C5 19.9695 4.78929 19.4608 4.41421 19.0857C4.03914 18.7106 3.53043 18.4999 3 18.4999V20.4999Z" fill="#D8A96D"/>
</svg>
