<svg width="24" height="24" viewBox="0 0 24 24" fill="none" xmlns="http://www.w3.org/2000/svg">
<path d="M14.522 14.078H17.792V15.408H12.945V8.57798H14.522V14.078ZM21.262 12.804H22.546V13.999C22.31 14.089 21.848 14.179 21.409 14.179C19.989 14.179 19.516 13.458 19.516 11.993C19.516 10.595 19.966 9.77198 21.385 9.77198C22.176 9.77198 22.625 10.02 22.997 10.494L23.979 9.59098C23.379 8.73598 22.333 8.47698 21.35 8.47698C19.142 8.47698 17.982 9.68198 17.982 11.981C17.982 14.269 19.029 15.509 21.34 15.509C22.4 15.509 23.436 15.239 24 14.844V11.53H21.261L21.262 12.804ZM5.291 6.70898C6.69426 6.70898 8.04005 7.26643 9.0323 8.25868C10.0246 9.25094 10.582 10.5967 10.582 12C10.582 13.4032 10.0246 14.749 9.0323 15.7413C8.04005 16.7335 6.69426 17.291 5.291 17.291C3.88774 17.291 2.54195 16.7335 1.5497 15.7413C0.557443 14.749 0 13.4032 0 12C0 10.5967 0.557443 9.25094 1.5497 8.25868C2.54195 7.26643 3.88774 6.70898 5.291 6.70898ZM8.451 15.166C8.86713 14.7516 9.19713 14.2589 9.42196 13.7164C9.6468 13.1739 9.76202 12.5922 9.761 12.005V11.763L9.541 11.764H6.596V12.258H9.258L9.257 12.273C9.187 13.2777 8.73916 14.2186 8.00355 14.9066C7.26795 15.5945 6.29915 15.9784 5.292 15.981C4.7697 15.9823 4.25232 15.88 3.76982 15.68C3.28731 15.4801 2.84926 15.1864 2.481 14.816C2.11079 14.4476 1.8173 14.0096 1.6175 13.5271C1.4177 13.0445 1.31556 12.5272 1.317 12.005C1.317 10.944 1.731 9.94598 2.481 9.19498C2.84922 8.82489 3.28715 8.53147 3.76947 8.33168C4.25179 8.13188 4.76894 8.02968 5.291 8.03098L5.543 8.03398V7.53898L5.292 7.53598C4.10706 7.53731 2.97102 8.00854 2.13305 8.84632C1.29507 9.68411 0.823588 10.82 0.822 12.005C0.822 13.199 1.287 14.321 2.131 15.166C2.54493 15.5824 3.03736 15.9127 3.57978 16.1375C4.12219 16.3624 4.70382 16.4774 5.291 16.476C5.87851 16.4777 6.46052 16.3628 7.0033 16.1379C7.54608 15.913 8.03883 15.5827 8.453 15.166M5.543 13.869V9.64398H5.04V14.364H6.596V13.869H5.543ZM4.278 10.317C4.2784 10.1832 4.23906 10.0522 4.16498 9.94077C4.09089 9.82932 3.9854 9.74236 3.86185 9.69092C3.73831 9.63948 3.60227 9.62587 3.47098 9.6518C3.33969 9.67774 3.21905 9.74207 3.12435 9.83663C3.02965 9.93119 2.96515 10.0517 2.93902 10.183C2.91288 10.3142 2.9263 10.4503 2.97756 10.5739C3.02881 10.6975 3.11561 10.8032 3.22696 10.8774C3.3383 10.9517 3.46917 10.9912 3.603 10.991C3.78177 10.9907 3.95315 10.9197 4.07965 10.7933C4.20615 10.667 4.27747 10.4958 4.278 10.317Z" fill="currentColor"/>
</svg>
