<svg width="24" height="24" viewBox="0 0 24 24" fill="none" xmlns="http://www.w3.org/2000/svg">
<path d="M10.9995 2.99976C11.5495 2.99976 11.6405 3.13976 12.0005 3.49976L20.5005 11.9998C20.8604 12.3597 21.0004 12.4501 21.0005 12.9998C21.0005 13.5495 20.8702 13.6401 20.5005 13.9998L14.0005 20.4998C13.6405 20.8698 13.5495 20.9998 12.9995 20.9998C12.4499 20.9996 12.2696 20.7698 11.9097 20.4099L3.50049 11.9998C3.13049 11.6298 2.99951 11.5498 2.99951 10.9998V3.99976C2.99949 2.90012 2.9006 2.99976 4.00049 2.99976H10.9995ZM10.9995 3.99976H3.99951V10.9998L12.9995 20.0105L20.0005 12.99L10.9995 3.98999V3.99976Z" fill="#746F6F"/>
<path d="M10.9995 2.99976C11.5495 2.99976 11.6405 3.13976 12.0005 3.49976L20.5005 11.9998C20.8604 12.3597 21.0004 12.4501 21.0005 12.9998C21.0005 13.5495 20.8702 13.6401 20.5005 13.9998L14.0005 20.4998C13.6405 20.8698 13.5495 20.9998 12.9995 20.9998C12.4499 20.9996 12.2696 20.7698 11.9097 20.4099L3.50049 11.9998C3.13049 11.6298 2.99951 11.5498 2.99951 10.9998V3.99976C2.99949 2.90012 2.9006 2.99976 4.00049 2.99976H10.9995ZM10.9995 3.99976H3.99951V10.9998L12.9995 20.0105L20.0005 12.99L10.9995 3.98999V3.99976Z" stroke="#746F6F"/>
<path d="M6.5 8C7.32843 8 8 7.32843 8 6.5C8 5.67157 7.32843 5 6.5 5C5.67157 5 5 5.67157 5 6.5C5 7.32843 5.67157 8 6.5 8Z" fill="#746F6F"/>
</svg>
