<svg width="24" height="24" viewBox="0 0 24 24" fill="none" xmlns="http://www.w3.org/2000/svg">
<path d="M21.5988 10.9633C21.5868 11.5609 21.0708 12.0001 20.4744 12.0001H13.2C12.8817 12.0001 12.5765 11.8737 12.3514 11.6487C12.1264 11.4236 12 11.1184 12 10.8001V3.52575C12 2.92815 12.4392 2.41335 13.0368 2.40135L13.2 2.40015C14.3168 2.4001 15.4225 2.62277 16.4523 3.05515C17.4821 3.48753 18.4153 4.12093 19.1973 4.91829C19.9794 5.71566 20.5946 6.66098 21.0069 7.69894C21.4193 8.73691 21.6205 9.84669 21.5988 10.9633ZM13.2 3.60015V10.8001H20.4C20.4 8.89059 19.6414 7.05924 18.2911 5.70898C16.9409 4.35872 15.1095 3.60015 13.2 3.60015ZM10.8 5.42295C10.8 5.34027 10.783 5.25846 10.75 5.18267C10.7169 5.10687 10.6686 5.03873 10.608 4.9825C10.5474 4.92628 10.4758 4.88319 10.3977 4.85594C10.3197 4.82869 10.2368 4.81786 10.1544 4.82415C8.55284 4.94778 7.02035 5.528 5.73854 6.49605C4.45672 7.46409 3.47934 8.77936 2.92225 10.2859C2.36516 11.7925 2.25172 13.4273 2.59537 14.9964C2.93903 16.5654 3.72537 18.0031 4.86118 19.1389C5.997 20.2747 7.43466 21.0611 9.00375 21.4047C10.5728 21.7484 12.2076 21.6349 13.7142 21.0779C15.2207 20.5208 16.536 19.5434 17.5041 18.2616C18.4721 16.9798 19.0523 15.4473 19.176 13.8457C19.1822 13.7633 19.1714 13.6805 19.1442 13.6024C19.1169 13.5243 19.0738 13.4527 19.0176 13.3921C18.9614 13.3315 18.8932 13.2832 18.8174 13.2501C18.7416 13.2171 18.6598 13.2001 18.5772 13.2001H12.6C12.1226 13.2001 11.6647 13.0105 11.3272 12.6729C10.9896 12.3354 10.8 11.8775 10.8 11.4001V5.42295ZM3.59996 13.2001C3.5997 11.4984 4.20218 9.85166 5.30052 8.55188C6.39886 7.25211 7.92207 6.38336 9.59996 6.09975V11.4001C9.59996 11.7941 9.67756 12.1842 9.82832 12.5482C9.97909 12.9122 10.2001 13.2429 10.4786 13.5215C11.0413 14.0841 11.8043 14.4001 12.6 14.4001H17.9004C17.5947 16.1762 16.6342 17.7732 15.2087 18.8757C13.7831 19.9783 11.996 20.5063 10.2001 20.3556C8.40418 20.2049 6.73005 19.3864 5.50815 18.0617C4.28625 16.737 3.60539 15.0023 3.59996 13.2001Z" fill="#746F6F"/>
</svg>
