<svg width="24" height="24" viewBox="0 0 24 24" fill="none" xmlns="http://www.w3.org/2000/svg">
<path d="M9.61685 4.88197L9.60365 4.88317C7.60555 5.17131 5.77804 6.16941 4.45565 7.69477C3.70137 8.56053 3.13343 9.57233 2.78721 10.6671C2.44099 11.762 2.3239 12.9163 2.44325 14.0584C2.65061 16.0994 3.59775 17.994 5.10598 19.3847C6.61421 20.7754 8.57925 21.5661 10.6304 21.6076C12.6815 21.6491 14.6769 20.9385 16.2401 19.6099C17.8034 18.2813 18.8263 16.4266 19.1161 14.3956V14.3836C19.1419 14.2043 19.1619 14.0242 19.176 13.8436C19.1822 13.7612 19.1712 13.6785 19.1439 13.6006C19.1165 13.5227 19.0734 13.4512 19.0172 13.3907C18.961 13.3303 18.8929 13.282 18.8172 13.2491C18.7415 13.2161 18.6598 13.1991 18.5772 13.1992H12.6C12.3637 13.1992 12.1296 13.1526 11.9112 13.0622C11.6928 12.9717 11.4944 12.8391 11.3273 12.672C11.1601 12.5048 11.0275 12.3064 10.9371 12.088C10.8466 11.8696 10.8001 11.6355 10.8001 11.3992V5.42197C10.8001 5.33929 10.7831 5.25749 10.7501 5.18169C10.717 5.1059 10.6687 5.03775 10.6081 4.98153C10.5474 4.9253 10.4759 4.88221 10.3978 4.85496C10.3197 4.82771 10.2369 4.81689 10.1544 4.82317C9.97365 4.83757 9.79445 4.85717 9.61685 4.88197ZM21.5989 10.9624C21.5869 11.56 21.0709 11.9992 20.4745 11.9992H13.2C12.8818 11.9992 12.5766 11.8727 12.3515 11.6477C12.1265 11.4227 12 11.1174 12 10.7992V3.52477C12 2.92717 12.4392 2.41237 13.0369 2.40037L13.2 2.39917C14.3169 2.39912 15.4226 2.6218 16.4524 3.05418C17.4821 3.48656 18.4154 4.11995 19.1974 4.91732C19.9795 5.71468 20.5947 6.66 21.007 7.69797C21.4193 8.73593 21.6206 9.84571 21.5989 10.9624Z" fill="#D8A96D"/>
</svg>
