<svg width="24" height="24" viewBox="0 0 24 24" fill="none" xmlns="http://www.w3.org/2000/svg">
<path d="M19.817 10.28L19.863 12.974H19.84L19.06 10.281H17.777V13.673H18.625L18.579 10.888H18.602L19.438 13.673H20.665V10.281L19.817 10.28ZM3.667 10.28L3.026 13.708H3.954L4.424 10.59H4.447L4.906 13.708H5.822L5.192 10.281L3.667 10.28ZM8.848 10.28L8.424 12.894H8.401L7.977 10.281H6.58L6.511 13.708H7.371L7.394 10.625H7.405L7.978 13.708H8.849L9.422 10.625H9.445L9.468 13.708H10.328L10.248 10.281L8.848 10.28ZM1.582 12.734C1.60714 12.8157 1.61093 12.9025 1.593 12.986C1.57 13.1 1.49 13.215 1.261 13.215C1.043 13.215 0.917 13.089 0.917 12.905V12.573H0V12.837C0 13.605 0.607 13.834 1.25 13.834C1.868 13.834 2.384 13.616 2.464 13.054C2.51 12.756 2.476 12.562 2.464 12.493C2.304 11.771 0.997 11.564 0.905 11.163C0.893742 11.1025 0.893742 11.0405 0.905 10.98C0.928 10.865 1.009 10.75 1.215 10.75C1.421 10.75 1.535 10.877 1.535 11.06V11.266H2.395V11.026C2.395 10.281 1.719 10.166 1.238 10.166C0.63 10.166 0.126 10.372 0.034 10.923C0.00390462 11.0747 0.00800408 11.2311 0.046 11.381C0.183 12.091 1.41 12.298 1.582 12.733M12.734 12.733C12.768 12.813 12.756 12.917 12.745 12.986C12.722 13.1 12.642 13.215 12.413 13.215C12.195 13.215 12.069 13.089 12.069 12.905V12.573H11.152V12.837C11.152 13.593 11.748 13.822 12.39 13.822C13.009 13.822 13.513 13.616 13.593 13.043C13.639 12.745 13.605 12.562 13.593 12.481C13.456 11.771 12.16 11.553 12.069 11.163C12.0577 11.1025 12.0577 11.0405 12.069 10.98C12.092 10.865 12.172 10.75 12.379 10.75C12.573 10.75 12.699 10.877 12.699 11.06V11.266H13.547V11.026C13.547 10.281 12.882 10.166 12.401 10.166C11.794 10.166 11.301 10.361 11.209 10.923C11.186 11.072 11.186 11.209 11.221 11.381C11.358 12.091 12.561 12.286 12.734 12.733ZM15.622 13.192C15.862 13.192 15.932 13.032 15.954 12.94C15.966 12.905 15.966 12.848 15.966 12.814V10.28H16.836V12.744C16.836 12.813 16.836 12.939 16.826 12.974C16.768 13.615 16.264 13.821 15.633 13.821C15.003 13.821 14.499 13.615 14.441 12.973C14.441 12.939 14.43 12.813 14.43 12.744V10.28H15.3V12.813C15.3 12.859 15.3 12.904 15.312 12.939C15.312 13.03 15.382 13.191 15.622 13.191M22.774 13.157C23.026 13.157 23.106 12.997 23.129 12.904C23.14 12.87 23.14 12.813 23.14 12.778V12.285H22.785V11.781H24V12.698C24 12.767 24 12.813 23.989 12.928C23.931 13.558 23.392 13.775 22.785 13.775C22.178 13.775 21.639 13.558 21.582 12.927C21.57 12.813 21.57 12.767 21.57 12.698V11.254C21.57 11.197 21.582 11.082 21.582 11.024C21.662 10.383 22.178 10.177 22.785 10.177C23.392 10.177 23.92 10.383 23.988 11.025C24 11.128 24 11.254 24 11.254V11.369H23.14V11.174C23.14 11.174 23.14 11.094 23.129 11.048C23.117 10.968 23.049 10.796 22.785 10.796C22.533 10.796 22.465 10.956 22.441 11.048C22.43 11.093 22.43 11.151 22.43 11.208V12.778C22.43 12.824 22.43 12.87 22.441 12.904C22.441 12.996 22.533 13.157 22.774 13.157Z" fill="currentColor"/>
</svg>
