<svg width="126" height="39" viewBox="0 0 126 39" fill="none" xmlns="http://www.w3.org/2000/svg">
<path d="M14.84 27.2L7.08 14.36C6.52 14.9467 5.93333 15.5467 5.32 16.16C4.73333 16.7733 4.12 17.3867 3.48 18V27.2H0V0H3.48V14.12C5.98667 11.5867 8.08 9.18667 9.76 6.92C11.44 4.65333 12.8667 2.34667 14.04 0H17.8C16.6 2.34667 15.3467 4.48 14.04 6.4C12.76 8.29333 11.2933 10.1867 9.64 12.08L19.08 27.2H14.84Z" fill="white"/>
<path d="M38.6281 27.2L36.5881 20.88H26.2681L24.2281 27.2H20.8281L29.8681 0H33.1481L42.2281 27.2H38.6281ZM28.7881 13.04L27.2681 17.72H35.5481L34.0281 13.04L31.4281 4.64L28.7881 13.04Z" fill="white"/>
<path d="M51.1941 16.56V27.2H47.7141V0H56.2341C58.7941 0 60.7674 0.68 62.1541 2.04C63.5674 3.37333 64.2741 5.16 64.2741 7.4V9.12C64.2741 10.72 63.9007 12.1067 63.1541 13.28C62.4341 14.4533 61.3941 15.32 60.0341 15.88C61.1807 17.72 62.2474 19.5867 63.2341 21.48C64.2207 23.3733 65.1274 25.28 65.9541 27.2H61.9541C60.4341 23.5733 58.6607 20.0267 56.6341 16.56H51.1941ZM56.2341 3.2H51.1941V13.36H56.2341C57.5941 13.36 58.6741 12.9867 59.4741 12.24C60.2741 11.4667 60.6741 10.4267 60.6741 9.12V7.4C60.6741 6.06667 60.2741 5.04 59.4741 4.32C58.6741 3.57333 57.5941 3.2 56.2341 3.2Z" fill="white"/>
<path d="M86.5375 27.2L84.4975 20.88H74.1775L72.1375 27.2H68.7375L77.7775 0H81.0575L90.1375 27.2H86.5375ZM76.6975 13.04L75.1775 17.72H83.4575L81.9375 13.04L79.3375 4.64L76.6975 13.04Z" fill="white"/>
<path d="M89.2862 3.28V0H108.606V3.28H100.686V27.2H97.2062V3.28H89.2862Z" fill="white"/>
<path d="M88.8971 22.8984C88.7882 22.5889 88.6653 22.3339 88.5285 22.1336C88.4013 21.9134 88.2822 21.7399 88.1714 21.6133C88.0554 21.4719 87.9298 21.3505 87.7947 21.249C87.5252 21.0954 87.1842 21.0912 86.7715 21.2365C86.4178 21.361 86.0462 21.5995 85.6568 21.9519C85.2821 22.2992 84.9615 22.7765 84.6949 23.3839C84.5568 23.6975 84.4485 24.1663 84.37 24.7903C84.2915 25.4143 84.239 26.1119 84.2124 26.8833C84.1858 27.6546 84.1769 28.4529 84.1858 29.278C84.1947 30.1031 84.22 30.881 84.2619 31.6117C84.2986 32.3277 84.3462 32.9569 84.4047 33.4995C84.4632 34.0422 84.5262 34.4093 84.5937 34.6009C84.6819 34.8514 84.8563 35.0882 85.117 35.3111C85.3925 35.5289 85.6996 35.7189 86.0383 35.8813C86.3866 36.0237 86.7367 36.1241 87.0886 36.1824C87.45 36.2209 87.7633 36.1934 88.0286 36.1C88.1612 36.0533 88.2787 35.9871 88.3811 35.9013C88.6248 35.6996 88.9015 35.4034 89.2112 35.0128C89.5158 34.6074 89.8199 34.1773 90.1236 33.7225C90.4421 33.2625 90.731 32.8129 90.9905 32.3737C91.2596 31.9146 91.4605 31.5208 91.5934 31.1924L93.0007 32.0139C92.9451 32.2323 92.8899 32.4753 92.835 32.7431C92.7611 33.0507 92.6651 33.3661 92.547 33.6893C92.434 34.0273 92.2621 34.3859 92.0313 34.7654C91.8004 35.1448 91.4933 35.5428 91.1099 35.9594C90.6094 36.4669 90.0778 36.886 89.515 37.2166C88.9522 37.5473 88.4277 37.7982 87.9413 37.9694C87.6907 38.0576 87.4497 38.1259 87.2183 38.1743C87.0068 38.2322 86.8169 38.2576 86.6488 38.2505C86.2145 38.2874 85.7873 38.1562 85.3672 37.8569C84.9419 37.5428 84.5422 37.1368 84.1682 36.639C83.7942 36.1412 83.4588 35.5884 83.162 34.9806C82.86 34.3581 82.6078 33.7594 82.4055 33.1846C82.2446 32.7277 82.1576 32.1041 82.1443 31.3136C82.1458 30.518 82.1859 29.6673 82.2647 28.7617C82.3382 27.8413 82.4321 26.9551 82.5463 26.1032C82.6701 25.2314 82.7664 24.4935 82.8354 23.8894C82.9 23.32 83.1054 22.7508 83.4517 22.1816C83.8075 21.5925 84.2088 21.062 84.6555 20.59C85.1118 20.098 85.562 19.6828 86.006 19.3443C86.4647 19.0005 86.8341 18.7794 87.1142 18.6808L87.291 18.6185C87.5424 18.5797 87.8604 18.6831 88.245 18.9287C88.6297 19.1743 89.0155 19.494 89.4026 19.8878C89.7846 20.2668 90.1327 20.6909 90.4469 21.1601C90.7707 21.6093 90.9949 22.0108 91.1194 22.3645L88.8971 22.8984Z" fill="#EED584"/>
<path d="M95.669 18.2781C95.5152 18.8292 95.409 19.4215 95.3504 20.055C95.2918 20.6885 95.2631 21.3364 95.2643 21.9986C95.2751 22.6408 95.308 23.2753 95.3629 23.902C95.4179 24.5286 95.4967 25.1055 95.5995 25.6326C95.6657 25.162 95.7233 24.6199 95.7724 24.0063C95.8162 23.378 95.8449 22.7301 95.8584 22.0627C95.8668 21.3806 95.8556 20.7137 95.8249 20.0619C95.809 19.4049 95.757 18.8103 95.669 18.2781ZM102.744 29.5528C102.589 30.0051 102.457 30.4076 102.349 30.7602C102.236 31.0982 102.116 31.414 101.987 31.7077C101.853 31.9867 101.7 32.2561 101.526 32.516C101.348 32.7611 101.132 33.0192 100.88 33.2903C100.559 33.6021 100.089 33.8669 99.4696 34.0848C99.1011 34.2146 98.705 34.3126 98.2811 34.379C97.8572 34.4454 97.4472 34.4572 97.0512 34.4144C96.675 34.3812 96.3276 34.2882 96.0087 34.1354C95.6899 33.9826 95.4513 33.7519 95.2929 33.4432C95.2523 33.3747 95.2189 33.3036 95.193 33.2299C95.1619 33.1415 95.1255 33.0383 95.084 32.9204C94.918 32.4488 94.724 31.7799 94.5019 30.9139C94.2946 30.0427 94.0956 29.0774 93.9049 28.0182C93.7142 26.9589 93.5499 25.8571 93.4122 24.713C93.2839 23.5489 93.2185 22.4455 93.2159 21.4028C93.2081 20.3454 93.276 19.3856 93.4197 18.5233C93.5634 17.661 93.8166 16.9921 94.1792 16.5166C94.2998 16.3416 94.4408 16.2009 94.6021 16.0944C94.7781 15.9827 94.9472 15.8983 95.1093 15.8413C95.522 15.696 95.9246 15.6868 96.3171 15.8136C96.7192 15.9206 96.996 16.0716 97.1475 16.2667L97.1709 16.333C97.2279 16.4952 97.2706 16.828 97.2988 17.3316C97.3365 17.8153 97.3564 18.4129 97.3584 19.1245C97.3553 19.8213 97.3313 20.6 97.2864 21.4606C97.2415 22.3213 97.1771 23.197 97.0932 24.088C97.0093 24.9789 96.8981 25.8628 96.7596 26.7398C96.6358 27.6117 96.4787 28.4124 96.2883 29.142C96.2995 29.2209 96.3115 29.3492 96.3244 29.5269C96.352 29.6994 96.39 29.9013 96.4383 30.1328C96.4867 30.3643 96.5428 30.6178 96.6067 30.8935C96.6655 31.1544 96.7415 31.4175 96.8349 31.6828C96.9906 32.125 97.1901 32.5268 97.4333 32.8885C97.6714 33.2353 97.9663 33.4379 98.3182 33.4963C98.7431 33.1976 99.1104 32.853 99.4202 32.4623C99.7247 32.0569 99.9968 31.6299 100.236 31.1811C100.485 30.7124 100.719 30.2242 100.938 29.7164C101.152 29.194 101.378 28.659 101.616 28.1114L102.744 29.5528Z" fill="#EED584"/>
<path d="M108.209 19.4542C108.001 19.7591 107.912 20.0472 107.941 20.3185C107.985 20.5847 108.013 20.898 108.024 21.2586C108.085 21.0549 108.15 20.7919 108.218 20.4696C108.302 20.142 108.299 19.8036 108.209 19.4542ZM114.167 25.581C113.371 27.319 112.462 28.5252 111.441 29.1996C111.079 29.4428 110.729 29.6241 110.39 29.7435C109.8 29.951 109.336 29.9489 108.996 29.7372C108.651 29.5107 108.396 29.1863 108.231 28.7641L108.138 28.4988C108.081 28.3367 108.013 28.1451 107.935 27.924C107.852 27.6882 107.766 27.4203 107.677 27.1203C107.324 28.1393 106.958 29.03 106.581 29.7924C106.198 30.5401 105.85 31.0105 105.537 31.2035C105.341 31.3056 105.15 31.3978 104.963 31.48C104.782 31.5769 104.588 31.6617 104.382 31.7343C104.072 31.8433 103.767 31.9176 103.466 31.9572C103.186 32.0064 102.921 32.0083 102.673 31.9631C102.42 31.9031 102.201 31.798 102.016 31.6479C101.83 31.4978 101.686 31.2754 101.582 30.9806L101.551 30.8922C101.525 30.8185 101.48 30.6191 101.415 30.2941C101.33 29.9594 101.242 29.4272 101.151 28.6974C101.074 27.9623 101.001 26.9777 100.931 25.7434C100.861 24.5091 100.815 22.9434 100.793 21.0461L102.91 20.4251C102.809 21.7857 102.76 22.9874 102.763 24.0301C102.775 25.0528 102.815 25.9416 102.882 26.6966C102.958 27.4316 103.05 28.0454 103.157 28.5377C103.264 29.0301 103.37 29.4237 103.473 29.7185C103.53 29.8806 103.577 30.0132 103.613 30.1164C103.659 30.1996 103.703 30.2755 103.743 30.344C103.784 30.4125 103.819 30.4663 103.85 30.5053C104.127 30.2091 104.417 29.8336 104.72 29.3788C105.019 28.9093 105.305 28.4029 105.577 27.8597C105.85 27.3165 106.107 26.7538 106.349 26.1715C106.586 25.5746 106.789 24.9979 106.958 24.4416C106.826 23.9249 106.711 23.4105 106.613 22.8981C106.516 22.3858 106.446 21.9052 106.404 21.4562C106.362 21.0072 106.343 20.5998 106.346 20.2341C106.35 19.8683 106.404 19.5758 106.51 19.3566C106.687 19.0127 106.959 18.7759 107.328 18.6462C107.549 18.5683 107.778 18.5373 108.016 18.5531C108.248 18.5541 108.468 18.5925 108.677 18.668C108.881 18.7289 109.063 18.8222 109.223 18.948C109.383 19.0738 109.492 19.2177 109.549 19.3799L109.572 19.4462C109.594 19.5545 109.59 19.7548 109.56 20.0468C109.525 20.3241 109.46 20.6786 109.363 21.1101C109.281 21.5365 109.176 22.0127 109.046 22.5387C108.926 23.0447 108.784 23.5833 108.621 24.1543C108.682 24.5635 108.761 24.9748 108.857 25.3883C108.947 25.787 109.06 26.178 109.195 26.5612C109.345 26.9886 109.522 27.3736 109.726 27.7161C109.924 28.0439 110.148 28.3045 110.399 28.498C110.71 28.2062 111.03 27.8203 111.358 27.3404C111.68 26.8457 111.981 26.3589 112.26 25.8798C112.548 25.3808 112.797 24.9368 113.008 24.5478C113.214 24.1441 113.348 23.8898 113.411 23.785L114.167 25.581Z" fill="#EED584"/>
<path d="M119.463 16.486C119.462 16.3872 119.439 16.2294 119.396 16.0127C119.362 15.776 119.317 15.5767 119.26 15.4145C119.234 15.3408 119.203 15.2771 119.168 15.2234C119.127 15.1549 119.085 15.1284 119.04 15.144C118.996 15.1595 118.945 15.2271 118.888 15.3466C118.854 15.3917 118.833 15.4489 118.824 15.5182C118.807 15.6569 118.819 15.7851 118.86 15.9031C118.897 16.0062 118.958 16.109 119.043 16.2113C119.144 16.3085 119.284 16.4 119.463 16.486ZM114.485 10.0388C114.372 10.3768 114.286 10.8131 114.225 11.3478C114.18 11.8773 114.147 12.419 114.127 12.9728C114.121 13.5214 114.14 14.045 114.183 14.5434C114.22 15.027 114.281 15.4115 114.365 15.6967C114.421 15.4783 114.459 15.1169 114.48 14.6125C114.501 14.1081 114.517 13.5642 114.527 12.9809C114.537 12.3976 114.537 11.8343 114.528 11.2908C114.519 10.7474 114.505 10.3301 114.485 10.0388ZM125.766 16.1803C125.371 16.7502 124.947 17.2639 124.495 17.7211C124.058 18.1732 123.493 18.5212 122.8 18.7651C122.682 18.8066 122.591 18.8303 122.527 18.8363C122.148 18.9366 121.721 18.9709 121.246 18.9393C121.164 19.6474 121.04 20.4698 120.872 21.4066C120.715 22.3234 120.515 23.2138 120.272 24.0778C120.039 24.9218 119.755 25.6678 119.42 26.3158C119.105 26.9734 118.746 27.3896 118.344 27.5644L118.145 27.6344C117.659 27.8056 117.163 27.8559 116.658 27.7853C116.167 27.7095 115.705 27.5493 115.271 27.3045C114.837 27.0597 114.446 26.75 114.099 26.3753C113.761 25.9807 113.509 25.5476 113.343 25.0759C113.317 25.0022 113.294 24.9359 113.273 24.877C113.247 24.8033 113.236 24.7244 113.24 24.6403C113.165 24.2858 113.081 23.6942 112.988 22.8655C112.909 22.0317 112.834 21.089 112.762 20.0377C112.69 18.9863 112.635 17.8877 112.596 16.7418C112.552 15.5813 112.534 14.4944 112.541 13.4812C112.549 12.468 112.589 11.5926 112.66 10.8551C112.732 10.1176 112.845 9.63883 113 9.4188C113.111 9.26375 113.227 9.14813 113.35 9.07196C113.481 8.97586 113.621 8.90186 113.768 8.84998C114.034 8.75658 114.32 8.72214 114.627 8.74665C114.933 8.77117 115.221 8.83553 115.49 8.93975C115.758 9.04397 115.995 9.1759 116.2 9.33554C116.401 9.48044 116.529 9.63395 116.586 9.79607C116.633 9.92872 116.648 10.2299 116.631 10.6997C116.629 11.1642 116.594 11.7232 116.526 12.3767C116.452 13.0154 116.358 13.7113 116.242 14.4644C116.126 15.2175 115.988 15.9536 115.827 16.6729C115.675 17.3722 115.506 18.0199 115.318 18.6161C115.13 19.2123 114.933 19.6628 114.726 19.9677C114.761 20.6342 114.848 21.3988 114.986 22.2613C115.119 23.109 115.315 23.9014 115.575 24.6383C115.751 25.1394 115.954 25.5733 116.182 25.9401C116.411 26.3069 116.677 26.5693 116.981 26.7273C117.355 26.3307 117.689 25.7988 117.985 25.1316C118.275 24.4497 118.522 23.7167 118.726 22.9325C118.93 22.1483 119.085 21.3649 119.191 20.5823C119.311 19.7945 119.386 19.0891 119.415 18.466C118.972 18.2905 118.583 18.0796 118.248 17.8332C117.922 17.5668 117.71 17.2937 117.611 17.0136L117.596 16.9694C117.502 16.7041 117.49 16.4103 117.559 16.0879C117.637 15.7456 117.755 15.4224 117.913 15.1184C118.086 14.8091 118.289 14.5388 118.522 14.3076C118.75 14.0616 118.975 13.8997 119.196 13.8219C119.344 13.77 119.464 13.7606 119.559 13.7936C119.871 13.8328 120.171 14.0502 120.459 14.4456C120.742 14.8264 120.967 15.2525 121.133 15.7241C121.216 15.96 121.284 16.201 121.338 16.4472C121.386 16.6786 121.407 16.9031 121.401 17.1206C121.392 17.19 121.384 17.284 121.376 17.4027C121.383 17.5163 121.373 17.6524 121.346 17.8109C121.41 17.8049 121.486 17.7864 121.575 17.7552C121.87 17.6515 122.183 17.4831 122.515 17.2502C122.862 17.0122 123.201 16.752 123.532 16.4697C123.873 16.1675 124.182 15.8683 124.459 15.5721C124.75 15.2707 124.985 14.9974 125.164 14.7523L125.766 16.1803Z" fill="#EED584"/>
</svg>
