<svg width="20" height="20" viewBox="0 0 20 20" fill="none" xmlns="http://www.w3.org/2000/svg">
<path d="M10.0001 19C12.0823 19 14.1001 18.278 15.7096 16.957C17.3192 15.6361 18.4209 13.7979 18.8271 11.7557C19.2333 9.71355 18.9188 7.5937 17.9373 5.75737C16.9557 3.92104 15.3678 2.48187 13.4441 1.68506C11.5204 0.888253 9.37992 0.783114 7.38739 1.38756C5.39486 1.992 3.67355 3.26863 2.51675 4.99992C1.35996 6.73121 0.839253 8.81004 1.04336 10.8822C1.24746 12.9544 2.16375 14.8917 3.63609 16.364" stroke="#038922" stroke-width="2" stroke-linecap="round"/>
<path d="M14 8L10.402 12.318C9.747 13.104 9.419 13.498 8.978 13.518C8.537 13.538 8.175 13.175 7.451 12.451L6 11" stroke="#038922" stroke-width="2" stroke-linecap="round"/>
</svg>
